<?xml version="1.0" encoding="UTF-8"?>
<svg id="Layer_2" data-name="Layer 2" xmlns="http://www.w3.org/2000/svg" viewBox="0 0 139.78 54.63">
  <defs>
    <style>
      .cls-1 {
        fill: #a7c7e7;
      }
    </style>
  </defs>
  <g id="Layer_1-2" data-name="Layer 1">
    <path class="cls-1" d="M32.14,5.68s-.05-.05-.08-.07c-1.23-.84-2.89-.29-3.93,.62-.99,.77-1.71,2.3-.92,3.45,.12,.17,.28,.3,.45,.39,1.56,.75,3.45-.14,4.4-1.46,.68-.8,.9-2.16,.08-2.93ZM25.61,.4c-.67-.62-1.83-.45-2.54,.08-1.42,1.03-2.35,3.11-1.44,4.76,.1,.14,.22,.27,.36,.37,1.01,.7,2.33,.08,3.06-.75,.98-1.07,1.61-2.8,.81-4.14-.07-.12-.16-.23-.26-.32Zm9.29,12.4c-.85-1.34-2.76-1.52-4.12-.93-1.03,.33-2,1.52-1.48,2.62,.84,1.47,2.98,1.6,4.36,.88,.95-.41,1.75-1.54,1.24-2.57ZM17.79,.36c-.57-.36-1.35-.36-1.89,.11-1.46,1.25-1.66,3.84-.21,5.18,.62,.54,1.55,.38,2.11-.15,1.2-1.14,1.42-3.18,.54-4.57-.13-.24-.33-.44-.55-.57h0Zm8.74,21.87c1.06-1.71,1.59-3.59,1.59-5.65,0-1.71-.4-3.25-1.21-4.61s-2-2.44-3.58-3.24c-1.58-.8-3.5-1.19-5.77-1.19-3.21,0-6.15,.85-8.81,2.55s-4.79,4.26-6.37,7.67S0,25.34,0,30.23c0,2.61,.37,4.8,1.12,6.59,.75,1.79,1.74,3.11,2.99,3.98,1.24,.87,2.6,1.3,4.07,1.3,2.68,0,4.32-1.68,4.92-5.03l1.56-8.72c2.8-.19,5.21-.83,7.24-1.92,2.03-1.09,3.57-2.49,4.63-4.2Zm-11.22,2.39l1.19-7.02c.05-.24,.07-.55,.07-.94,0-.65-.17-1.13-.52-1.43-.35-.3-.92-.45-1.72-.45-.7,0-1.31,.18-1.83,.53-.52,.35-.85,.93-1,1.75-.58,3.16-1.03,5.68-1.34,7.56-.31-.02-.76-.08-1.34-.18-.12-.02-.3-.04-.54-.04-.53,0-.95,.16-1.25,.47-.3,.31-.45,.74-.45,1.27s.11,.92,.33,1.25c.22,.33,.69,.55,1.41,.67-.12-.02,.29,.04,1.23,.18l-1.19,6.84c-.31,1.67-.77,2.5-1.38,2.5-.43,0-.89-.32-1.36-.96-.47-.64-.86-1.54-1.16-2.7s-.45-2.49-.45-3.98c0-3.57,.5-6.75,1.5-9.54,1-2.79,2.42-4.96,4.27-6.53s4.01-2.35,6.5-2.35c2.2,0,3.82,.5,4.87,1.5,1.05,1,1.58,2.3,1.58,3.89,0,4.51-2.47,7.08-7.42,7.71Zm124.14-3.11c-.22-.15-.6-.22-1.16-.22-.8,0-1.39,.16-1.79,.47s-.69,.83-.89,1.56c-.58,2.15-1.18,3.96-1.79,5.43s-1.19,2.57-1.74,3.29c-.54,.72-1,1.08-1.36,1.08-.51,0-.76-.46-.76-1.38,0-.58,.07-1.32,.22-2.23,.14-.91,.31-1.85,.51-2.84,.14-.72,.34-1.53,.58-2.42,.26-1.11,.4-1.76,.4-1.95,0-.34-.1-.59-.31-.76s-.57-.25-1.1-.25c-.94,0-1.63,.16-2.06,.47-.43,.31-.77,.83-1.01,1.56-.56,1.69-.95,3.29-1.19,4.79-.17,1.09-.26,2.28-.31,3.52-.7,.8-1.3,1.42-1.77,1.84-.66,.59-1.24,.89-1.72,.89-.7,0-1.05-.48-1.05-1.45,0-.67,.23-2.06,.69-4.16,.53-2.46,.8-4.16,.8-5.1,0-1.57-.78-2.35-2.35-2.35-.8,0-1.67,.28-2.62,.83s-1.92,1.48-2.91,2.79c-.99,1.3-1.88,2.99-2.68,5.07,.1-1.06,.22-1.95,.36-2.68,.14-.72,.34-1.57,.58-2.53,.36-1.35,.54-2.22,.54-2.61,0-.34-.1-.57-.29-.69-.19-.12-.53-.18-1.01-.18-.89,0-1.59,.16-2.08,.49-.5,.33-.85,.84-1.07,1.54-.42,1.33-.73,2.69-.95,4.08-1.08,.24-2.04,.39-2.88,.44-.19-1.86-.85-3.42-1.97-4.69s-2.6-1.9-4.43-1.9c-1.5,0-2.86,.4-4.09,1.21s-2.2,1.93-2.9,3.37c-.7,1.44-1.05,3.07-1.05,4.9,0,.49,.05,.96,.12,1.43-.5,.54-.93,.98-1.29,1.31-.66,.59-1.24,.89-1.72,.89-.7,0-1.05-.48-1.05-1.45,0-.67,.23-2.06,.69-4.16,.53-2.46,.8-4.16,.8-5.1,0-1.57-.78-2.35-2.35-2.35-1.28,0-2.65,.68-4.13,2.03-1.47,1.35-2.81,3.51-4.02,6.48,.07-.43,.2-1.09,.4-1.96,.46-2.03,.69-3.43,.69-4.2s-.18-1.39-.53-1.77c-.35-.39-.95-.58-1.79-.58s-1.74,.32-2.7,.96c-.95,.64-1.88,1.61-2.79,2.91-.91,1.3-1.68,2.9-2.33,4.78,.1-1.06,.22-1.95,.36-2.66s.34-1.55,.58-2.52c.36-1.35,.54-2.22,.54-2.61,0-.34-.1-.57-.29-.69-.19-.12-.53-.18-1.01-.18-.89,0-1.59,.16-2.08,.49-.5,.33-.85,.84-1.07,1.54-.42,1.32-.73,2.67-.95,4.06-1.41,.28-2.56,.45-3.43,.5,.58-1.4,.87-2.64,.87-3.73,0-.94-.22-1.66-.65-2.15-.43-.49-1-.74-1.7-.74-.8,0-1.51,.24-2.14,.72-.63,.48-1.12,1.11-1.48,1.88-.36,.77-.54,1.57-.54,2.39,0,.96,.18,1.8,.54,2.5-.72,1.28-1.81,2.99-3.26,5.14-.34-4.44-.51-8.05-.51-10.82,0-.67-.13-1.15-.38-1.41-.25-.27-.71-.4-1.36-.4-.53,0-.98,.13-1.36,.38-.37,.25-.69,.74-.96,1.47-1.38,3.74-2.88,7.34-4.52,10.79-.05-.72-.1-1.41-.15-2.08,0-.03,0-.06,0-.09,0-.13-.02-.23-.03-.34-.22-3.3-.33-6.08-.33-8.31,0-.65-.15-1.12-.45-1.39-.3-.28-.77-.42-1.39-.42-.82,0-1.44,.16-1.85,.47s-.63,.87-.65,1.67v1.27c0,2.44,.14,5.27,.41,8.49-.11,.11-.23,.23-.33,.32-.65,.59-1.21,.89-1.67,.89-.29,0-.52-.11-.71-.33-.18-.22-.27-.51-.27-.87,0-1.08,.28-3.02,.83-5.79,.36-1.91,.54-3.11,.54-3.62,0-.84-.59-1.27-1.77-1.27-.56,0-1.09,.05-1.59,.15-.12-.53-.27-.9-.45-1.1-.18-.2-.54-.31-1.07-.31-1.67,0-3.24,.53-4.72,1.57-1.48,1.05-2.67,2.44-3.57,4.16-.89,1.73-1.34,3.55-1.34,5.48,0,1.76,.45,3.19,1.34,4.27,.89,1.08,2.09,1.63,3.58,1.63,1.91,0,3.49-1.01,4.74-3.04,.34,.94,.84,1.68,1.5,2.23,.66,.54,1.39,.81,2.19,.81,1.04,0,2.11-.42,3.22-1.27,.13-.1,.26-.21,.39-.31,.08,.15,.16,.3,.25,.42,.57,.77,1.34,1.16,2.33,1.16,.8,0,1.49-.2,2.08-.62,.59-.41,1.18-1.15,1.77-2.21,.59-1.06,1.26-2.61,2.01-4.63l.18,2.64c.12,1.71,.43,2.94,.92,3.69,.49,.75,1.22,1.12,2.19,1.12,.87,0,1.65-.25,2.33-.76s1.51-1.45,2.48-2.82c.84-1.21,1.62-2.38,2.32-3.51,.94,.29,1.94,.43,3,.43,.77,0,1.52-.08,2.24-.21,0,.27-.03,.53-.03,.79,0,2.12,.19,3.67,.56,4.63,.37,.96,1.02,1.45,1.94,1.45,.75,0,1.3-.2,1.65-.6,.35-.4,.66-1.16,.92-2.3,.31-1.3,.73-2.63,1.25-3.98s1.06-2.46,1.61-3.33c.55-.87,1.01-1.3,1.38-1.3,.27,0,.4,.19,.4,.58,0,.48-.1,1.5-.29,3.04-.24,1.74-.36,3.06-.36,3.98,0,1.08,.2,2.01,.6,2.77s1,1.14,1.79,1.14,1.33-.19,1.68-.58c.35-.39,.66-1.16,.92-2.32,.36-1.47,.83-2.87,1.41-4.2,.58-1.33,1.16-2.39,1.74-3.2,.58-.81,1.03-1.21,1.34-1.21,.26,0,.4,.19,.4,.58,0,.58-.16,1.63-.47,3.15-.34,1.74-.51,2.94-.51,3.62,0,1.35,.31,2.38,.94,3.09,.63,.71,1.56,1.07,2.79,1.07,1.52,0,2.88-.41,4.07-1.23,.67-.46,1.31-1,1.93-1.6,.47,.7,1.05,1.3,1.76,1.78,1.03,.7,2.26,1.05,3.71,1.05,1.71,0,3.25-.61,4.6-1.83,1.35-1.22,2.26-2.84,2.71-4.87,.99-.04,1.93-.16,2.82-.34,0,.32-.03,.63-.03,.96,0,2.12,.19,3.67,.56,4.63,.37,.96,1.02,1.45,1.94,1.45,.75,0,1.3-.2,1.65-.6,.35-.4,.66-1.16,.92-2.3,.36-1.47,.84-2.87,1.43-4.2,.59-1.33,1.17-2.39,1.74-3.2,.57-.81,1.01-1.21,1.32-1.21,.27,0,.4,.19,.4,.58,0,.58-.16,1.63-.47,3.15-.34,1.74-.51,2.94-.51,3.62,0,1.35,.31,2.38,.94,3.09,.63,.71,1.56,1.07,2.79,1.07,1.52,0,2.88-.41,4.07-1.23,.55-.38,1.09-.81,1.6-1.29,.15,.36,.32,.71,.53,1.02,.69,1,1.57,1.5,2.66,1.5,.96,0,1.88-.45,2.75-1.36,.87-.9,1.54-2.23,2.03-3.96-.22,1.67-.41,2.94-.58,3.84l-.11,.83c-2.58,1.98-4.58,3.73-5.99,5.27-1.41,1.53-2.38,2.89-2.9,4.07-.52,1.18-.78,2.34-.78,3.47,0,1.23,.39,2.23,1.16,2.99,.77,.76,1.77,1.14,3,1.14,2.61,0,4.69-1.81,6.26-5.43,1.57-3.62,2.8-8.53,3.69-14.73,.1-.63,.42-2.64,.98-6.04,.63-3.55,.94-5.61,.94-6.19,0-.34-.11-.58-.33-.72ZM32.25,31.25c-.22,1.04-.57,1.87-1.05,2.5-.48,.63-.99,.94-1.52,.94s-.95-.18-1.25-.54c-.3-.36-.45-.92-.45-1.67,0-1.35,.25-2.63,.76-3.84,.51-1.21,1.19-2.18,2.04-2.91,.86-.74,1.79-1.12,2.8-1.14l-1.34,6.66Zm67.7,2.32c-.57,.63-1.24,.94-2.01,.94-.7,0-1.31-.35-1.83-1.05-.52-.7-.78-1.71-.78-3.04,0-1.69,.32-3,.96-3.93,.64-.93,1.44-1.39,2.41-1.39h.18c-.07,.39-.11,.77-.11,1.16,0,.92,.2,1.79,.6,2.61s.97,1.48,1.72,1.99c-.19,1.18-.57,2.09-1.14,2.71Zm30.38,15.46c-.75,1.4-1.42,2.1-2.03,2.1-.36,0-.62-.13-.78-.4-.16-.27-.24-.6-.24-1.01,0-.97,.42-2.09,1.25-3.38,.83-1.29,2.18-2.72,4.04-4.29-.75,3.26-1.5,5.58-2.24,6.99Z"/>
  </g>
</svg>