<?xml version="1.0" encoding="UTF-8"?>
<svg id="Layer_2" data-name="Layer 2" xmlns="http://www.w3.org/2000/svg" viewBox="0 0 25.2 25.2">
  <g id="gnb-2depth">
    <g>
      <path d="M12.6,9.19c-1.89,0-3.41,1.52-3.41,3.41s1.52,3.41,3.41,3.41,3.41-1.52,3.41-3.41-1.52-3.41-3.41-3.41Zm0,5.63c-1.22,0-2.22-.99-2.22-2.22s.99-2.22,2.22-2.22,2.22,.99,2.22,2.22-1,2.22-2.22,2.22h0Zm4.35-5.77c0,.44-.36,.8-.8,.8s-.8-.36-.8-.8,.36-.8,.8-.8,.8,.36,.8,.8Zm2.26,.81c-.05-1.07-.29-2.01-1.07-2.79-.78-.78-1.72-1.02-2.79-1.07-1.1-.06-4.39-.06-5.49,0-1.06,.05-2.01,.29-2.79,1.07-.78,.78-1.02,1.72-1.07,2.79-.06,1.1-.06,4.39,0,5.49,.05,1.07,.29,2.01,1.07,2.79,.78,.78,1.72,1.02,2.79,1.07,1.1,.06,4.39,.06,5.49,0,1.07-.05,2.01-.29,2.79-1.07,.78-.78,1.02-1.72,1.07-2.79,.06-1.1,.06-4.39,0-5.49h0Zm-1.42,6.66c-.23,.58-.68,1.03-1.26,1.26-.88,.35-2.95,.27-3.92,.27s-3.05,.08-3.92-.27c-.58-.23-1.03-.68-1.26-1.26-.35-.88-.27-2.95-.27-3.92s-.08-3.05,.27-3.92c.23-.58,.68-1.03,1.26-1.26,.88-.35,2.95-.27,3.92-.27s3.05-.08,3.92,.27c.58,.23,1.03,.68,1.26,1.26,.35,.88,.27,2.95,.27,3.92s.08,3.05-.27,3.92Z"/>
      <path d="M12.6,25.2C5.65,25.2,0,19.55,0,12.6S5.65,0,12.6,0s12.6,5.65,12.6,12.6-5.65,12.6-12.6,12.6ZM12.6,.74C6.06,.74,.74,6.06,.74,12.6s5.32,11.86,11.86,11.86,11.86-5.32,11.86-11.86S19.14,.74,12.6,.74Z"/>
    </g>
  </g>
</svg>