<?xml version="1.0" encoding="UTF-8"?>
<svg id="Layer_2" data-name="Layer 2" xmlns="http://www.w3.org/2000/svg" viewBox="0 0 34.23 34.23">
  <defs>
    <style>
      .cls-1 {
        fill: #fff;
      }

      .cls-2 {
        fill: none;
        stroke: #fff;
        stroke-miterlimit: 10;
      }
    </style>
  </defs>
  <g id="design">
    <g>
      <path class="cls-1" d="M17.12,12.48c-2.56,0-4.63,2.07-4.63,4.63s2.07,4.63,4.63,4.63,4.63-2.07,4.63-4.63-2.07-4.63-4.63-4.63Zm0,7.64c-1.66,0-3.01-1.35-3.01-3.01s1.35-3.01,3.01-3.01,3.01,1.35,3.01,3.01-1.35,3.01-3.01,3.01h0Zm5.9-7.83c0,.6-.48,1.08-1.08,1.08s-1.08-.48-1.08-1.08,.48-1.08,1.08-1.08,1.08,.48,1.08,1.08Zm3.07,1.1c-.07-1.45-.4-2.73-1.46-3.79-1.06-1.06-2.34-1.39-3.79-1.46-1.49-.08-5.96-.08-7.45,0-1.44,.07-2.73,.4-3.79,1.46s-1.39,2.34-1.46,3.79c-.08,1.49-.08,5.96,0,7.45,.07,1.45,.4,2.73,1.46,3.79,1.06,1.06,2.34,1.39,3.79,1.46,1.49,.08,5.96,.08,7.45,0,1.45-.07,2.73-.4,3.79-1.46,1.06-1.06,1.39-2.34,1.46-3.79,.08-1.49,.08-5.96,0-7.45h0Zm-1.93,9.05c-.31,.79-.92,1.4-1.72,1.72-1.19,.47-4.01,.36-5.33,.36s-4.14,.1-5.33-.36c-.79-.31-1.4-.92-1.72-1.72-.47-1.19-.36-4.01-.36-5.33s-.1-4.14,.36-5.33c.31-.79,.92-1.4,1.72-1.72,1.19-.47,4.01-.36,5.33-.36s4.14-.1,5.33,.36c.79,.31,1.4,.92,1.72,1.72,.47,1.19,.36,4.01,.36,5.33s.11,4.14-.36,5.33Z"/>
      <circle class="cls-2" cx="17.11" cy="17.11" r="16.61"/>
    </g>
  </g>
</svg>