<?xml version="1.0" encoding="UTF-8"?>
<svg id="Layer_2" data-name="Layer 2" xmlns="http://www.w3.org/2000/svg" viewBox="0 0 25.2 25.2">
  <g id="gnb-2depth">
    <g>
      <path d="M20.59,14.18c0,2.28-.98,3.71-2.75,3.71-1.56,0-2.39-.86-3.92-3.41l-.78-1.31c-.21-.31-.36-.6-.53-.87-.5,.84-1.18,2.07-1.18,2.07-1.67,2.91-2.61,3.52-3.92,3.52-1.82,0-2.9-1.43-2.9-3.64,0-3.57,1.99-6.94,4.59-6.94,1.25,0,2.34,.62,3.61,2.23,.93-1.25,1.95-2.23,3.26-2.23,2.47,0,4.51,3.14,4.51,6.88h0Zm-8.8-3.14c-1.07-1.55-1.77-2.01-2.61-2.01-1.54,0-2.84,2.65-2.84,5.24,0,1.21,.46,1.89,1.24,1.89s1.22-.47,2.58-2.59c0,0,.62-.98,1.63-2.53h0Zm6.08,5.12c.8,0,1.17-.69,1.17-1.87,0-3.1-1.36-5.63-3.07-5.63-.83,0-1.52,.65-2.37,1.95,.23,.34,.48,.72,.73,1.13l.94,1.56c1.46,2.35,1.83,2.86,2.61,2.86h0Z"/>
      <path d="M12.6,25.2C5.65,25.2,0,19.55,0,12.6S5.65,0,12.6,0s12.6,5.65,12.6,12.6-5.65,12.6-12.6,12.6ZM12.6,.74C6.06,.74,.74,6.06,.74,12.6s5.32,11.86,11.86,11.86,11.86-5.32,11.86-11.86S19.14,.74,12.6,.74Z"/>
    </g>
  </g>
</svg>