<?xml version="1.0" encoding="UTF-8"?>
<svg id="Layer_2" data-name="Layer 2" xmlns="http://www.w3.org/2000/svg" viewBox="0 0 34.23 34.23">
  <defs>
    <style>
      .cls-1 {
        fill: #fff;
      }

      .cls-2 {
        fill: none;
        stroke: #fff;
        stroke-miterlimit: 10;
      }
    </style>
  </defs>
  <g id="design">
    <g>
      <path class="cls-1" d="M27.96,19.27c0,3.09-1.34,5.03-3.74,5.03-2.12,0-3.25-1.17-5.32-4.63l-1.06-1.78c-.28-.42-.49-.82-.72-1.19-.68,1.15-1.6,2.81-1.6,2.81-2.27,3.95-3.55,4.79-5.32,4.79-2.47,0-3.94-1.94-3.94-4.95,0-4.85,2.7-9.43,6.23-9.43,1.7,0,3.18,.84,4.91,3.03,1.26-1.7,2.65-3.03,4.43-3.03,3.36,0,6.13,4.26,6.13,9.34h0Zm-11.95-4.26c-1.45-2.11-2.4-2.73-3.54-2.73-2.1,0-3.86,3.6-3.86,7.12,0,1.64,.63,2.57,1.68,2.57s1.66-.64,3.5-3.52c0,0,.84-1.33,2.22-3.44h0Zm8.26,6.96c1.09,0,1.59-.93,1.59-2.54,0-4.21-1.84-7.64-4.18-7.64-1.13,0-2.07,.88-3.22,2.64,.32,.47,.65,.98,.99,1.54l1.27,2.12c1.99,3.19,2.49,3.88,3.54,3.88h0Z"/>
      <circle class="cls-2" cx="17.11" cy="17.11" r="16.61"/>
    </g>
  </g>
</svg>