<?xml version="1.0" encoding="UTF-8"?>
<svg id="Layer_2" data-name="Layer 2" xmlns="http://www.w3.org/2000/svg" viewBox="0 0 25.2 25.2">
  <g id="gnb-2depth">
    <g>
      <path d="M16.13,7.04h1.89l-4.12,4.71,4.85,6.41h-3.79l-2.97-3.88-3.4,3.88h-1.89l4.41-5.04L6.45,7.04h3.89l2.68,3.55,3.11-3.55Zm-.66,9.99h1.04l-6.74-8.92h-1.12l6.82,8.92Z"/>
      <path d="M12.6,25.2C5.65,25.2,0,19.55,0,12.6S5.65,0,12.6,0s12.6,5.65,12.6,12.6-5.65,12.6-12.6,12.6ZM12.6,.74C6.06,.74,.74,6.06,.74,12.6s5.32,11.86,11.86,11.86,11.86-5.32,11.86-11.86S19.14,.74,12.6,.74Z"/>
    </g>
  </g>
</svg>