<?xml version="1.0" encoding="UTF-8"?>
<svg id="Layer_2" data-name="Layer 2" xmlns="http://www.w3.org/2000/svg" viewBox="0 0 34.23 34.23">
  <defs>
    <style>
      .cls-1 {
        fill: #fff;
      }

      .cls-2 {
        fill: none;
        stroke: #fff;
        stroke-miterlimit: 10;
      }
    </style>
  </defs>
  <g id="design">
    <g>
      <path class="cls-1" d="M25.56,12.86c-.2-.77-.8-1.37-1.56-1.57-1.38-.37-6.89-.37-6.89-.37,0,0-5.51,0-6.89,.37-.76,.2-1.36,.8-1.56,1.57-.37,1.38-.37,4.27-.37,4.27,0,0,0,2.89,.37,4.27,.2,.77,.8,1.34,1.56,1.54,1.38,.37,6.89,.37,6.89,.37,0,0,5.51,0,6.89-.37,.76-.2,1.36-.78,1.56-1.54,.37-1.38,.37-4.27,.37-4.27,0,0,0-2.89-.37-4.27h0Zm-10.25,6.89v-5.24l4.61,2.62-4.61,2.62h0Z"/>
      <circle class="cls-2" cx="17.11" cy="17.11" r="16.61"/>
    </g>
  </g>
</svg>