<?xml version="1.0" encoding="UTF-8"?>
<svg id="Layer_2" data-name="Layer 2" xmlns="http://www.w3.org/2000/svg" viewBox="0 0 25.2 25.2">
  <g id="gnb-2depth">
    <g>
      <path d="M18.82,9.47c-.15-.56-.59-1.01-1.15-1.15-1.01-.27-5.07-.27-5.07-.27,0,0-4.06,0-5.07,.27-.56,.15-1,.59-1.15,1.15-.27,1.02-.27,3.14-.27,3.14,0,0,0,2.12,.27,3.14,.15,.56,.59,.99,1.15,1.14,1.01,.27,5.07,.27,5.07,.27,0,0,4.06,0,5.07-.27,.56-.15,1-.58,1.15-1.14,.27-1.02,.27-3.14,.27-3.14,0,0,0-2.12-.27-3.14h0Zm-7.55,5.07v-3.86l3.39,1.93-3.39,1.93h0Z"/>
      <path d="M12.6,25.2C5.65,25.2,0,19.55,0,12.6S5.65,0,12.6,0s12.6,5.65,12.6,12.6-5.65,12.6-12.6,12.6ZM12.6,.74C6.06,.74,.74,6.06,.74,12.6s5.32,11.86,11.86,11.86,11.86-5.32,11.86-11.86S19.14,.74,12.6,.74Z"/>
    </g>
  </g>
</svg>