<?xml version="1.0" encoding="UTF-8"?>
<svg id="Layer_2" data-name="Layer 2" xmlns="http://www.w3.org/2000/svg" viewBox="0 0 40 39">
  <defs>
    <style>
      .cls-1 {
        fill: #ff9a00;
      }

      .cls-2 {
        fill: #300;
      }
    </style>
  </defs>
  <g id="design">
    <g>
      <rect class="cls-2" width="40" height="39" rx="7.08" ry="7.08"/>
      <path class="cls-1" d="M19.38,23.4h-6.2l-1.26,3.92c-.03,.15-.17,.25-.32,.24h-3.14c-.18,0-.24-.1-.19-.3l5.37-15.46c.05-.16,.11-.34,.16-.55,.07-.36,.11-.72,.11-1.09-.01-.09,.05-.17,.14-.19,0,0,0,0,0,0,.02,0,.03,0,.05,0h4.27c.13,0,.2,.04,.22,.13l6.09,17.17c.05,.18,0,.27-.16,.27h-3.49c-.12,.01-.24-.07-.27-.19l-1.37-3.97Zm-5.23-3.38h4.24c-.11-.36-.23-.76-.38-1.21-.14-.45-.3-.93-.46-1.44l-.48-1.53c-.16-.51-.31-1-.44-1.48-.13-.47-.26-.91-.37-1.3h-.03c-.15,.72-.34,1.44-.56,2.15-.25,.81-.51,1.63-.76,2.47-.26,.84-.51,1.62-.76,2.33Z"/>
      <path class="cls-1" d="M28.29,12.83c-.55,.02-1.09-.19-1.48-.59-.38-.41-.59-.97-.56-1.53-.02-.56,.2-1.1,.6-1.49,.4-.38,.93-.59,1.49-.58,.64,0,1.15,.19,1.52,.58,.37,.4,.57,.94,.55,1.49,.02,.57-.19,1.12-.58,1.53-.41,.4-.96,.62-1.54,.59Zm-1.85,14.46V14.47c0-.16,.07-.24,.21-.24h3.3c.14,0,.21,.08,.21,.24v12.83c0,.18-.07,.27-.21,.27h-3.27c-.16,0-.24-.09-.24-.27Z"/>
    </g>
  </g>
</svg>