<?xml version="1.0" encoding="UTF-8"?>
<svg id="Layer_2" data-name="Layer 2" xmlns="http://www.w3.org/2000/svg" viewBox="0 0 40 39">
  <defs>
    <style>
      .cls-1 {
        fill: #001e36;
      }

      .cls-2 {
        fill: #31a8ff;
      }
    </style>
  </defs>
  <g id="design">
    <g>
      <rect class="cls-1" y="0" width="40" height="39" rx="7.08" ry="7.08"/>
      <path class="cls-2" d="M9.01,27.35V10.2c0-.12,.05-.19,.16-.19,.29,0,.55,0,.94-.01,.39-.01,.82-.02,1.27-.03l1.45-.03c.51,0,1.01-.01,1.52-.01,1.36,0,2.51,.17,3.44,.51,.84,.28,1.6,.75,2.24,1.37,.54,.53,.96,1.18,1.22,1.89,.25,.69,.38,1.42,.37,2.16,0,1.43-.33,2.61-.99,3.54-.67,.93-1.6,1.64-2.68,2.03-1.13,.42-2.38,.56-3.76,.56-.39,0-.67,0-.83-.01s-.4-.01-.72-.01v5.35c.02,.12-.06,.22-.18,.24,0,0,0,0,0,0-.02,0-.04,0-.06,0h-3.19c-.13,0-.19-.07-.19-.22Zm3.62-14.11v5.59c.23,.02,.45,.03,.64,.03h.89c.65,0,1.3-.11,1.92-.31,.53-.16,1.01-.46,1.37-.88,.35-.41,.52-.98,.52-1.72,.01-.52-.12-1.03-.39-1.48-.28-.43-.69-.76-1.17-.95-.62-.24-1.29-.36-1.95-.34-.43,0-.81,0-1.14,.01s-.56,.02-.68,.04h0Z"/>
      <path class="cls-2" d="M32,17.81c-.5-.26-1.04-.45-1.6-.56-.61-.14-1.24-.21-1.86-.21-.34,0-.68,.03-1.01,.12-.21,.05-.39,.17-.52,.34-.09,.14-.13,.29-.13,.46,0,.16,.06,.31,.16,.43,.16,.18,.35,.33,.56,.44,.38,.21,.78,.39,1.18,.55,.9,.3,1.76,.71,2.56,1.22,.55,.34,1,.82,1.31,1.38,.27,.53,.4,1.12,.39,1.72,.02,.79-.21,1.56-.64,2.21-.47,.66-1.11,1.18-1.86,1.49-.82,.36-1.82,.54-3.02,.54-.76,0-1.52-.06-2.27-.21-.59-.11-1.16-.29-1.7-.54-.12-.06-.19-.19-.19-.32v-2.9c0-.06,.02-.11,.07-.15,.05-.03,.11-.02,.15,.01,.64,.38,1.34,.65,2.07,.82,.64,.16,1.3,.25,1.96,.25,.63,0,1.09-.08,1.38-.24,.27-.12,.45-.4,.44-.7,0-.23-.13-.46-.4-.67-.27-.21-.81-.47-1.64-.77-.84-.29-1.64-.7-2.37-1.21-.52-.36-.96-.85-1.26-1.41-.26-.53-.4-1.11-.39-1.7,0-.71,.19-1.41,.56-2.02,.42-.67,1.03-1.2,1.74-1.53,.79-.39,1.77-.59,2.95-.59,.69,0,1.38,.04,2.07,.15,.5,.06,.98,.2,1.44,.39,.07,.02,.13,.08,.16,.15,.02,.07,.03,.13,.03,.2v2.71c0,.06-.03,.13-.08,.16-.07,.04-.16,.04-.23,0Z"/>
    </g>
  </g>
</svg>