<?xml version="1.0" encoding="UTF-8"?>
<svg id="Layer_2" data-name="Layer 2" xmlns="http://www.w3.org/2000/svg" viewBox="0 0 40 39">
  <defs>
    <style>
      .cls-1 {
        fill: #49021f;
      }

      .cls-2 {
        fill: #f36;
      }
    </style>
  </defs>
  <g id="design">
    <g>
      <path class="cls-1" d="M7.08,0h25.83c3.92,0,7.08,3.17,7.08,7.08V31.92c0,3.92-3.17,7.08-7.08,7.08H7.08c-3.92,0-7.08-3.17-7.08-7.08V7.08C0,3.17,3.17,0,7.08,0Z"/>
      <g id="vlpa">
        <g id="vlpb">
          <path class="cls-2" d="M14.53,10.2V27.37c0,.18-.08,.27-.23,.27h-3.27c-.15,0-.22-.08-.22-.27V10.2c0-.15,.08-.22,.23-.22h3.25c.1-.02,.2,.05,.22,.17,.02,.02,.02,.03,.02,.05Z"/>
          <path class="cls-2" d="M24.17,27.83c-1.23,.02-2.47-.23-3.58-.75-1.05-.48-1.92-1.28-2.52-2.27-.62-1.02-.92-2.28-.92-3.8-.02-1.23,.3-2.45,.92-3.52,.63-1.08,1.55-1.98,2.65-2.58,1.17-.65,2.57-.97,4.22-.97,.08,0,.2,0,.35,.02s.32,.02,.52,.03v-5.27c0-.12,.05-.18,.17-.18h3.38c.08-.02,.15,.05,.17,.12v15.9c0,.3,.02,.63,.03,1,.03,.35,.05,.68,.07,.97,0,.12-.05,.22-.17,.27-.87,.37-1.78,.63-2.72,.8-.83,.15-1.7,.23-2.57,.23h0Zm1.63-3.33v-7.33c-.15-.03-.3-.07-.45-.08-.18-.02-.37-.03-.55-.03-.65,0-1.3,.13-1.88,.43-.57,.28-1.05,.7-1.42,1.23s-.55,1.25-.55,2.12c-.02,.58,.08,1.17,.28,1.72,.17,.45,.42,.85,.75,1.18,.32,.3,.7,.53,1.13,.67,.45,.15,.92,.22,1.38,.22,.25,0,.48-.02,.7-.03,.22,.02,.42-.02,.6-.08h0Z"/>
        </g>
      </g>
    </g>
  </g>
</svg>