<?xml version="1.0" encoding="utf-8"?>
<!-- Generator: Adobe Illustrator 27.0.0, SVG Export Plug-In . SVG Version: 6.00 Build 0)  -->
<svg version="1.1" id="Layer_2_00000152950715688359295630000004761732850483912117_"
	 xmlns="http://www.w3.org/2000/svg" xmlns:xlink="http://www.w3.org/1999/xlink" x="0px" y="0px" viewBox="0 0 40 45"
	 style="enable-background:new 0 0 40 45;" xml:space="preserve">
<style type="text/css">
	.st0{fill-rule:evenodd;clip-rule:evenodd;fill:#2062AF;}
	.st1{fill-rule:evenodd;clip-rule:evenodd;fill:#3C9CD7;}
	.st2{fill-rule:evenodd;clip-rule:evenodd;fill:#FFFFFF;}
	.st3{fill-rule:evenodd;clip-rule:evenodd;fill:url(#SVGID_1_);}
	.st4{fill-rule:evenodd;clip-rule:evenodd;fill:url(#SVGID_00000096052577052779672970000015753912564835238032_);}
</style>
<g id="design">
	<g id="Layer_1-2">
		<g id="_513085304">
			<path class="st0" d="M36.2,40.6L20,45L3.8,40.6L0,0h40L36.2,40.6z"/>
			<path class="st1" d="M20,3.3v38.2h0L33.2,38l3-34.7H20z"/>
			<path class="st2" d="M20,13.4L8.4,18.3l0.4,4.8L20,18.3l12-5.1l0.5-4.9C32.5,8.3,20,13.5,20,13.4z"/>
			<g>
				<path class="st2" d="M8.4,18.3l0.4,4.8L20,18.3v-4.8C20,13.5,8.3,18.3,8.4,18.3z"/>
			</g>
			<g>
				<path class="st2" d="M32.4,8.3L20,13.5v4.8l12-5.1L32.4,8.3z"/>
			</g>
			
				<linearGradient id="SVGID_1_" gradientUnits="userSpaceOnUse" x1="84035.9922" y1="-148631.25" x2="84978.0547" y2="-148631.25" gradientTransform="matrix(2.000000e-02 0 0 2.000000e-02 -1846.35 3000)">
				<stop  offset="0" style="stop-color:#E8E7E5"/>
				<stop  offset="1" style="stop-color:#FFFFFF"/>
			</linearGradient>
			<path class="st3" d="M8.4,18.3l0.4,4.8l17.2,0l-0.4,6.4l-5.7,1.6l-5.5-1.4l-0.3-4H9.1l0.7,7.7l10.2,3l10.2-3l1.3-15.2L8.4,18.3
				L8.4,18.3z"/>
			<path class="st2" d="M20,18.3H8.4l0.4,4.8l11.2,0L20,18.3L20,18.3z M20,31.1L20,31.1l-5.5-1.4l-0.3-4H9.1l0.7,7.7l10.2,3L20,31.1
				L20,31.1z"/>
			
				<linearGradient id="SVGID_00000096016942216263048230000009026626758905068730_" gradientUnits="userSpaceOnUse" x1="83992.6484" y1="-149464.25" x2="85015.4219" y2="-149464.25" gradientTransform="matrix(2.000000e-02 0 0 2.000000e-02 -1846.35 3000)">
				<stop  offset="0" style="stop-color:#E8E7E5"/>
				<stop  offset="1" style="stop-color:#FFFFFF"/>
			</linearGradient>
			<path style="fill-rule:evenodd;clip-rule:evenodd;fill:url(#SVGID_00000096016942216263048230000009026626758905068730_);" d="
				M7.3,8.3h25.1L32,13.2h-24L7.3,8.3L7.3,8.3z"/>
			<path class="st2" d="M20,8.3H7.3l0.6,4.9H20V8.3z"/>
		</g>
	</g>
</g>
</svg>
