<?xml version="1.0" encoding="UTF-8"?>
<svg id="Layer_2" data-name="Layer 2" xmlns="http://www.w3.org/2000/svg" viewBox="0 0 40 44.71">
  <defs>
    <style>
      .cls-1 {
        fill: #fff;
      }

      .cls-2 {
        fill: #e65100;
      }

      .cls-3 {
        fill: #ff6d00;
      }

      .cls-4 {
        fill: #eee;
      }
    </style>
  </defs>
  <g id="design">
    <g>
      <path class="cls-2" d="M40,0H0L3.53,40l16.47,4.71,16.47-4.71L40,0h0Z"/>
      <path class="cls-3" d="M20,3.53V41.06l13.18-3.76L36.12,3.53H20Z"/>
      <path class="cls-1" d="M20,23.53v-4.71h10.12l-.82,13.53-9.29,3.06v-4.94l4.82-1.65,.35-5.29h-5.18Zm10.47-9.41l.35-4.71h-10.82v4.71h10.47Z"/>
      <path class="cls-4" d="M20,30.47v4.94l-9.29-3.06-.47-6.47h4.71l.24,2.94,4.82,1.65ZM14.24,14.12h5.76v-4.71H9.29l.82,14.12h9.88v-4.71h-5.41l-.35-4.71Z"/>
    </g>
  </g>
</svg>