<?xml version="1.0" encoding="UTF-8"?>
<svg id="Layer_2" data-name="Layer 2" xmlns="http://www.w3.org/2000/svg" viewBox="0 0 40 39.63">
  <defs>
    <style>
      .cls-1 {
        fill: #21609b;
        fill-rule: evenodd;
      }
    </style>
  </defs>
  <g id="design">
    <path class="cls-1" d="M39.07,29.42l-.18,.46c-3.05,5.94-8.46,9.59-16.17,9.75-3.6,.07-7.04-.85-9.28-1.86-4.84-2.18-8.92-6.21-11.14-10.52C-.89,21.07-1.46,12.47,5.17,6.05c.1,0-.8,1.39-.7,1.39l-.18,.59C-.5,23.01,14.23,35.83,28.55,34.37c3.44-.35,7.83-2.24,10.52-4.95"/>
    <path class="cls-1" d="M30.41,23.23c3.6,.02,7.36-1.66,9.59-4.02-1.95,4.95-7.59,8.13-15.16,7.12-6.34-.85-12.37-7.23-13-13.62-.45-4.65,1.17-7.43,3.84-10.79-.93,1.76-1.28,3.12-1.36,3.99-1.01,10.06,8.04,17.28,16.09,17.33"/>
    <path class="cls-1" d="M39.64,10.73c-.56,1.28-3.78,3.71-5.21,4.01-5.64,1.2-9.25-1.47-11.14-4.51-.28-.45-.8-1.7-.89-2.01-.73-2.49-.4-6.27,1.79-8.22-.66,1.86-.76,4.01-.41,5.42,.21,.85,.85,2.33,1.49,3.26,1.17,1.7,1.91,2.11,3.4,3.01,.67,.41,1.4,.73,1.71,.82,1.42,.42,4.42,1.52,9.25-1.77"/>
  </g>
</svg>